<svg width="64" height="64" fill="none" xmlns="http://www.w3.org/2000/svg"><path d="M62 46v-5l-8-7h-8M24 58a4 4 0 1 0 0-8 4 4 0 0 0 0 8ZM54 58a4 4 0 1 0 0-8 4 4 0 0 0 0 8Z" stroke="#666" stroke-width="2" stroke-miterlimit="10" stroke-linecap="round" stroke-linejoin="round"/><path d="M20 54h-4v-8m0 0h46v8h-4m-42-8V29.8m8.5-5.8H46v22M2 38h6m-2 8h2" stroke="#666" stroke-width="2" stroke-miterlimit="10" stroke-linecap="round" stroke-linejoin="round"/><path d="M20 54h-4v-8m0 0h46v8h-4m-42-8V29.8m8.5-5.8H46v22M2 38h6m-2 8h2m20.5 8H50" stroke="#666" stroke-width="2" stroke-miterlimit="10" stroke-linecap="round" stroke-linejoin="round"/><path d="M14 30c6.627 0 12-5.373 12-12S20.627 6 14 6 2 11.373 2 18s5.373 12 12 12Z" stroke="#666" stroke-width="2" stroke-miterlimit="10" stroke-linecap="round" stroke-linejoin="round"/><path d="M14 12v8h6" stroke="#666" stroke-width="2" stroke-miterlimit="10" stroke-linecap="round" stroke-linejoin="round"/></svg>