<svg width="64" height="64" fill="none" xmlns="http://www.w3.org/2000/svg"><path d="M40 58s12 0 12-14h4.4a3.6 3.6 0 0 0 3.6-3.6V29.6a3.6 3.6 0 0 0-3.6-3.6H52v-4c0-11.045-7.955-20-19-20h-2c-11.047 0-19 8.955-19 20v4H7.6A3.6 3.6 0 0 0 4 29.6v10.8A3.6 3.6 0 0 0 7.6 44H10" stroke="#666" stroke-width="2" stroke-miterlimit="10" stroke-linecap="round" stroke-linejoin="round"/><path d="M40 58a4 4 0 0 0-4-4h-4a4 4 0 1 0 0 8h4a4 4 0 0 0 4-4ZM40 24l-6 14h14m-4-6v12M18 25.55a6 6 0 0 1 8.637 8.277L18 44h12" stroke="#666" stroke-width="2" stroke-miterlimit="10" stroke-linecap="round" stroke-linejoin="round"/></svg>